999
Placeholder title block TITLE_CONSULTING (190 x 50 mm) - Cong ty tu van thiet ke
999
ATTDEF tags: CHU_DAU_TU DON_VI_TK CHU_NHIEM KS_TK NGUOI_VE KIEM_TRA NGAY TI_LE
  0
SECTION
  2
BLOCKS
  0
BLOCK
  8
0
  2
TITLE_CONSULTING
 70
     0
 10
0.0
 20
0.0
 30
0.0
  3
TITLE_CONSULTING
  1

  0
LWPOLYLINE
  8
0
 90
        4
 70
     1
 10
0.0
 20
0.0
 10
190.0
 20
0.0
 10
190.0
 20
50.0
 10
0.0
 20
50.0
  0
LINE
  8
0
 10
0.0
 20
40.0
 30
0.0
 11
190.0
 21
40.0
 31
0.0
  0
LINE
  8
0
 10
0.0
 20
25.0
 30
0.0
 11
190.0
 21
25.0
 31
0.0
  0
LINE
  8
0
 10
0.0
 20
10.0
 30
0.0
 11
190.0
 21
10.0
 31
0.0
  0
LINE
  8
0
 10
95.0
 20
0.0
 30
0.0
 11
95.0
 21
50.0
 31
0.0
  0
TEXT
  8
0
 10
2.0
 20
46.0
 30
0.0
 40
1.5
  1
CHU DAU TU:
  0
TEXT
  8
0
 10
97.0
 20
46.0
 30
0.0
 40
1.5
  1
DON VI THIET KE:
  0
TEXT
  8
0
 10
2.0
 20
32.0
 30
0.0
 40
1.5
  1
Chu nhiem:
  0
TEXT
  8
0
 10
50.0
 20
32.0
 30
0.0
 40
1.5
  1
KS thiet ke:
  0
TEXT
  8
0
 10
97.0
 20
32.0
 30
0.0
 40
1.5
  1
Nguoi ve:
  0
TEXT
  8
0
 10
145.0
 20
32.0
 30
0.0
 40
1.5
  1
Kiem tra:
  0
TEXT
  8
0
 10
2.0
 20
7.0
 30
0.0
 40
1.5
  1
Ngay:
  0
TEXT
  8
0
 10
100.0
 20
7.0
 30
0.0
 40
1.5
  1
Ti le:
  0
ATTDEF
  8
0
 10
2.0
 20
42.0
 30
0.0
 40
2.5
  1

  3
Chu dau tu
  2
CHU_DAU_TU
 70
     0
  0
ATTDEF
  8
0
 10
97.0
 20
42.0
 30
0.0
 40
2.5
  1

  3
Don vi thiet ke
  2
DON_VI_TK
 70
     0
  0
ATTDEF
  8
0
 10
2.0
 20
27.0
 30
0.0
 40
2.0
  1

  3
Chu nhiem
  2
CHU_NHIEM
 70
     0
  0
ATTDEF
  8
0
 10
50.0
 20
27.0
 30
0.0
 40
2.0
  1

  3
KS thiet ke
  2
KS_TK
 70
     0
  0
ATTDEF
  8
0
 10
97.0
 20
27.0
 30
0.0
 40
2.0
  1

  3
Nguoi ve
  2
NGUOI_VE
 70
     0
  0
ATTDEF
  8
0
 10
145.0
 20
27.0
 30
0.0
 40
2.0
  1

  3
Kiem tra
  2
KIEM_TRA
 70
     0
  0
ATTDEF
  8
0
 10
2.0
 20
2.0
 30
0.0
 40
2.5
  1

  3
Ngay
  2
NGAY
 70
     0
  0
ATTDEF
  8
0
 10
100.0
 20
2.0
 30
0.0
 40
2.5
  1

  3
Ti le
  2
TI_LE
 70
     0
  0
ENDBLK
  8
0
  0
ENDSEC
  0
EOF
