999
Placeholder title block TITLE_CONTRACTOR (190 x 50 mm) - Nha thau thi cong
999
ATTDEF tags: BEN_A BEN_B GIAM_SAT KT_THI_CONG NGAY_DUYET TI_LE
  0
SECTION
  2
BLOCKS
  0
BLOCK
  8
0
  2
TITLE_CONTRACTOR
 70
     0
 10
0.0
 20
0.0
 30
0.0
  3
TITLE_CONTRACTOR
  1

  0
LWPOLYLINE
  8
0
 90
        4
 70
     1
 10
0.0
 20
0.0
 10
190.0
 20
0.0
 10
190.0
 20
50.0
 10
0.0
 20
50.0
  0
LINE
  8
0
 10
0.0
 20
40.0
 30
0.0
 11
190.0
 21
40.0
 31
0.0
  0
LINE
  8
0
 10
0.0
 20
25.0
 30
0.0
 11
190.0
 21
25.0
 31
0.0
  0
LINE
  8
0
 10
0.0
 20
10.0
 30
0.0
 11
190.0
 21
10.0
 31
0.0
  0
LINE
  8
0
 10
95.0
 20
0.0
 30
0.0
 11
95.0
 21
50.0
 31
0.0
  0
TEXT
  8
0
 10
2.0
 20
46.0
 30
0.0
 40
1.5
  1
BEN A (Chu dau tu):
  0
TEXT
  8
0
 10
97.0
 20
46.0
 30
0.0
 40
1.5
  1
BEN B (Nha thau thi cong):
  0
TEXT
  8
0
 10
2.0
 20
32.0
 30
0.0
 40
1.5
  1
Giam sat:
  0
TEXT
  8
0
 10
97.0
 20
32.0
 30
0.0
 40
1.5
  1
KT thi cong:
  0
TEXT
  8
0
 10
2.0
 20
7.0
 30
0.0
 40
1.5
  1
Ngay duyet:
  0
TEXT
  8
0
 10
100.0
 20
7.0
 30
0.0
 40
1.5
  1
Ti le:
  0
ATTDEF
  8
0
 10
2.0
 20
42.0
 30
0.0
 40
2.5
  1

  3
Ben A
  2
BEN_A
 70
     0
  0
ATTDEF
  8
0
 10
97.0
 20
42.0
 30
0.0
 40
2.5
  1

  3
Ben B
  2
BEN_B
 70
     0
  0
ATTDEF
  8
0
 10
2.0
 20
27.0
 30
0.0
 40
2.5
  1

  3
Giam sat
  2
GIAM_SAT
 70
     0
  0
ATTDEF
  8
0
 10
97.0
 20
27.0
 30
0.0
 40
2.5
  1

  3
KT thi cong
  2
KT_THI_CONG
 70
     0
  0
ATTDEF
  8
0
 10
2.0
 20
2.0
 30
0.0
 40
2.5
  1

  3
Ngay duyet
  2
NGAY_DUYET
 70
     0
  0
ATTDEF
  8
0
 10
100.0
 20
2.0
 30
0.0
 40
2.5
  1

  3
Ti le
  2
TI_LE
 70
     0
  0
ENDBLK
  8
0
  0
ENDSEC
  0
EOF
