999
Placeholder title block TITLE_STATE (190 x 50 mm) - Nha nuoc UBND/So XD
999
ATTDEF tags: TT_QLGT CV_PHU_TRACH CS_KHU_VUC NGUOI_LAP BV_SO SHBV NGAY TI_LE
  0
SECTION
  2
BLOCKS
  0
BLOCK
  8
0
  2
TITLE_STATE
 70
     0
 10
0.0
 20
0.0
 30
0.0
  3
TITLE_STATE
  1

  0
LWPOLYLINE
  8
0
 90
        4
 70
     1
 10
0.0
 20
0.0
 10
190.0
 20
0.0
 10
190.0
 20
50.0
 10
0.0
 20
50.0
  0
LINE
  8
0
 10
0.0
 20
40.0
 30
0.0
 11
190.0
 21
40.0
 31
0.0
  0
LINE
  8
0
 10
0.0
 20
25.0
 30
0.0
 11
190.0
 21
25.0
 31
0.0
  0
LINE
  8
0
 10
0.0
 20
10.0
 30
0.0
 11
190.0
 21
10.0
 31
0.0
  0
LINE
  8
0
 10
95.0
 20
0.0
 30
0.0
 11
95.0
 21
40.0
 31
0.0
  0
LINE
  8
0
 10
145.0
 20
40.0
 30
0.0
 11
145.0
 21
50.0
 31
0.0
  0
TEXT
  8
0
 10
2.0
 20
46.0
 30
0.0
 40
1.5
  1
TT QUAN LY GIAO THONG:
  0
TEXT
  8
0
 10
97.0
 20
46.0
 30
0.0
 40
1.5
  1
CHIEU SANG KHU VUC:
  0
TEXT
  8
0
 10
147.0
 20
46.0
 30
0.0
 40
1.5
  1
SHBV:
  0
TEXT
  8
0
 10
2.0
 20
22.0
 30
0.0
 40
1.5
  1
CV phu trach:
  0
TEXT
  8
0
 10
97.0
 20
22.0
 30
0.0
 40
1.5
  1
CS khu vuc:
  0
TEXT
  8
0
 10
2.0
 20
7.0
 30
0.0
 40
1.5
  1
Nguoi lap:
  0
TEXT
  8
0
 10
50.0
 20
7.0
 30
0.0
 40
1.5
  1
Ngay:
  0
TEXT
  8
0
 10
100.0
 20
7.0
 30
0.0
 40
1.5
  1
Ban ve so:
  0
TEXT
  8
0
 10
150.0
 20
7.0
 30
0.0
 40
1.5
  1
Ti le:
  0
ATTDEF
  8
0
 10
2.0
 20
42.0
 30
0.0
 40
2.0
  1

  3
TT Quan ly giao thong
  2
TT_QLGT
 70
     0
  0
ATTDEF
  8
0
 10
97.0
 20
42.0
 30
0.0
 40
2.0
  1

  3
Chieu sang khu vuc
  2
CS_KHU_VUC
 70
     0
  0
ATTDEF
  8
0
 10
147.0
 20
42.0
 30
0.0
 40
2.0
  1

  3
So hieu ban ve
  2
SHBV
 70
     0
  0
ATTDEF
  8
0
 10
2.0
 20
17.0
 30
0.0
 40
2.5
  1

  3
Chuyen vien phu trach
  2
CV_PHU_TRACH
 70
     0
  0
ATTDEF
  8
0
 10
2.0
 20
2.0
 30
0.0
 40
2.5
  1

  3
Nguoi lap
  2
NGUOI_LAP
 70
     0
  0
ATTDEF
  8
0
 10
50.0
 20
2.0
 30
0.0
 40
2.5
  1

  3
Ngay
  2
NGAY
 70
     0
  0
ATTDEF
  8
0
 10
100.0
 20
2.0
 30
0.0
 40
2.5
  1

  3
Ban ve so
  2
BV_SO
 70
     0
  0
ATTDEF
  8
0
 10
150.0
 20
2.0
 30
0.0
 40
2.5
  1

  3
Ti le
  2
TI_LE
 70
     0
  0
ENDBLK
  8
0
  0
ENDSEC
  0
EOF
